<svg width="92" height="92" viewBox="0 0 92 92" fill="none" xmlns="http://www.w3.org/2000/svg">
<path d="M46 65.1667C45.5262 65.1667 45.0629 65.3072 44.6689 65.5704C44.275 65.8337 43.9679 66.2079 43.7865 66.6457C43.6052 67.0834 43.5578 67.5652 43.6502 68.0299C43.7426 68.4946 43.9708 68.9215 44.3059 69.2566C44.641 69.5917 45.0679 69.8199 45.5326 69.9123C45.9973 70.0047 46.4791 69.9573 46.9168 69.776C47.3546 69.5946 47.7288 69.2876 47.9921 68.8936C48.2553 68.4996 48.3958 68.0364 48.3958 67.5625C48.3958 66.9271 48.1434 66.3177 47.6941 65.8684C47.2448 65.4191 46.6354 65.1667 46 65.1667Z" fill="#373737" stroke="#373737" stroke-width="1.91667" stroke-linecap="round" stroke-linejoin="round"/>
<path d="M46 89.125C69.8173 89.125 89.125 69.8173 89.125 46C89.125 22.1827 69.8173 2.875 46 2.875C22.1827 2.875 2.875 22.1827 2.875 46C2.875 69.8173 22.1827 89.125 46 89.125Z" stroke="#373737" stroke-width="5.75" stroke-miterlimit="10"/>
<path d="M46 18V56" stroke="#373737" stroke-width="4" stroke-linejoin="round"/>
</svg>
